<svg xmlns="http://www.w3.org/2000/svg" xmlns:xlink="http://www.w3.org/1999/xlink" width="200" zoomAndPan="magnify" viewBox="0 0 150 74.999997" height="100" preserveAspectRatio="xMidYMid meet" version="1.2"><defs><clipPath id="5647b3a6ff"><path d="M 7.5 37 L 13 37 L 13 40 L 7.5 40 Z M 7.5 37 "/></clipPath><clipPath id="01a6a5d81f"><path d="M 15 50 L 19 50 L 19 54.804688 L 15 54.804688 Z M 15 50 "/></clipPath></defs><g id="ae84a3187a"><path style=" stroke:none;fill-rule:nonzero;fill:#2dabe3;fill-opacity:1;" d="M 22.402344 27.800781 C 23.253906 26.824219 23.984375 25.703125 24.972656 24.894531 C 30.550781 20.304688 38.589844 22.105469 41.789062 28.570312 C 42.027344 29.046875 42.457031 29.542969 42.921875 29.769531 C 47.816406 32.179688 50.234375 36.828125 49.207031 41.964844 C 48.246094 46.765625 44.101562 50.25 38.84375 50.519531 C 36.769531 50.625 34.664062 50.613281 32.601562 50.378906 C 26.535156 49.695312 22.53125 44.757812 22.96875 38.679688 C 23.070312 37.308594 23.992188 36.347656 25.136719 36.421875 C 26.28125 36.496094 27.070312 37.382812 26.910156 38.824219 C 26.457031 42.789062 29.492188 46.84375 34.742188 46.597656 C 36.40625 46.515625 38.09375 46.632812 39.730469 46.390625 C 42.996094 45.910156 45.355469 43.167969 45.484375 39.953125 C 45.609375 36.808594 43.382812 33.839844 40.191406 33.117188 C 39.128906 32.878906 38.769531 32.394531 38.519531 31.394531 C 37.460938 27.15625 32.632812 25.027344 28.800781 27.132812 C 27.757812 27.703125 26.769531 27.949219 25.613281 27.902344 C 24.628906 27.863281 23.640625 27.988281 22.652344 28.039062 C 22.566406 27.960938 22.484375 27.878906 22.402344 27.800781 Z M 22.402344 27.800781 "/><path style=" stroke:none;fill-rule:nonzero;fill:#fbc927;fill-opacity:1;" d="M 27.761719 50.128906 C 21.085938 51.960938 14.320312 46.363281 14.609375 39.390625 C 14.851562 33.65625 19.230469 29.167969 24.835938 28.910156 C 30.457031 28.648438 35.3125 32.644531 36.128906 38.28125 C 36.277344 39.296875 36.230469 40.367188 36.082031 41.382812 C 35.890625 42.6875 35 43.28125 33.78125 43.121094 C 32.722656 42.980469 32.113281 42.265625 32.210938 40.96875 C 32.398438 38.457031 31.839844 36.234375 29.855469 34.566406 C 27.640625 32.707031 25.121094 32.316406 22.5 33.550781 C 19.984375 34.734375 18.605469 36.8125 18.582031 39.597656 C 18.558594 42.46875 19.941406 44.546875 22.507812 45.910156 C 23.425781 46.394531 24.210938 47.140625 25.027344 47.800781 C 25.925781 48.53125 26.789062 49.300781 27.761719 50.128906 Z M 27.761719 50.128906 "/><g clip-rule="nonzero" clip-path="url(#5647b3a6ff)"><path style=" stroke:none;fill-rule:nonzero;fill:#fbc927;fill-opacity:1;" d="M 10.007812 39.097656 C 9.429688 39.097656 8.839844 39.167969 8.277344 39.066406 C 7.996094 39.015625 7.769531 38.660156 7.515625 38.4375 C 7.726562 38.214844 7.925781 37.804688 8.144531 37.792969 C 9.417969 37.730469 10.699219 37.722656 11.972656 37.796875 C 12.195312 37.808594 12.390625 38.289062 12.597656 38.554688 C 12.355469 38.734375 12.128906 39.039062 11.863281 39.074219 C 11.253906 39.148438 10.628906 39.097656 10.007812 39.097656 Z M 10.007812 39.097656 "/></g><g clip-rule="nonzero" clip-path="url(#01a6a5d81f)"><path style=" stroke:none;fill-rule:nonzero;fill:#fbc927;fill-opacity:1;" d="M 15.464844 54.808594 C 15.304688 54.402344 14.953125 53.953125 15.066406 53.734375 C 15.660156 52.554688 16.351562 51.414062 17.066406 50.296875 C 17.167969 50.140625 17.636719 50.058594 17.828125 50.152344 C 18.011719 50.246094 18.214844 50.691406 18.136719 50.84375 C 17.511719 52.058594 16.828125 53.242188 16.140625 54.421875 C 16.070312 54.542969 15.867188 54.585938 15.464844 54.808594 Z M 15.464844 54.808594 "/></g><path style=" stroke:none;fill-rule:nonzero;fill:#fbc927;fill-opacity:1;" d="M 20.527344 27.292969 C 20.339844 27.605469 20.257812 27.917969 20.089844 27.972656 C 19.863281 28.050781 19.421875 28.023438 19.328125 27.878906 C 18.597656 26.738281 17.90625 25.570312 17.261719 24.378906 C 17.171875 24.207031 17.316406 23.773438 17.492188 23.636719 C 17.652344 23.515625 18.148438 23.53125 18.238281 23.660156 C 19.03125 24.847656 19.769531 26.074219 20.527344 27.292969 Z M 20.527344 27.292969 "/><path style=" stroke:none;fill-rule:nonzero;fill:#fbc927;fill-opacity:1;" d="M 13.746094 45.011719 C 13.738281 45.976562 10.050781 48.136719 9.566406 47.707031 C 9.378906 47.539062 9.386719 46.761719 9.566406 46.640625 C 10.589844 45.9375 11.671875 45.308594 12.785156 44.757812 C 13.027344 44.636719 13.480469 44.933594 13.746094 45.011719 Z M 13.746094 45.011719 "/><path style=" stroke:none;fill-rule:nonzero;fill:#fbc927;fill-opacity:1;" d="M 15.199219 32.179688 C 14.746094 32.296875 14.289062 32.570312 14.035156 32.445312 C 12.921875 31.894531 11.855469 31.253906 10.816406 30.578125 C 10.628906 30.457031 10.546875 29.988281 10.621094 29.734375 C 10.664062 29.578125 11.171875 29.375 11.324219 29.457031 C 12.527344 30.09375 13.695312 30.792969 14.863281 31.492188 C 14.976562 31.5625 15.007812 31.773438 15.199219 32.179688 Z M 15.199219 32.179688 "/><g style="fill:#2dabe3;fill-opacity:0.4;"><g transform="translate(51.132537, 45.825003)"><path style="stroke:none" d="M 8.78125 0.25 C 7.28125 0.25 5.921875 -0.0703125 4.703125 -0.71875 C 3.492188 -1.375 2.539062 -2.28125 1.84375 -3.4375 C 1.15625 -4.59375 0.8125 -5.894531 0.8125 -7.34375 C 0.8125 -8.800781 1.15625 -10.109375 1.84375 -11.265625 C 2.539062 -12.421875 3.492188 -13.320312 4.703125 -13.96875 C 5.921875 -14.625 7.285156 -14.953125 8.796875 -14.953125 C 10.066406 -14.953125 11.21875 -14.726562 12.25 -14.28125 C 13.28125 -13.832031 14.144531 -13.1875 14.84375 -12.34375 L 12.65625 -10.328125 C 11.664062 -11.472656 10.4375 -12.046875 8.96875 -12.046875 C 8.0625 -12.046875 7.25 -11.847656 6.53125 -11.453125 C 5.8125 -11.054688 5.253906 -10.5 4.859375 -9.78125 C 4.460938 -9.070312 4.265625 -8.257812 4.265625 -7.34375 C 4.265625 -6.4375 4.460938 -5.625 4.859375 -4.90625 C 5.253906 -4.195312 5.8125 -3.640625 6.53125 -3.234375 C 7.25 -2.835938 8.0625 -2.640625 8.96875 -2.640625 C 10.4375 -2.640625 11.664062 -3.222656 12.65625 -4.390625 L 14.84375 -2.375 C 14.144531 -1.519531 13.273438 -0.867188 12.234375 -0.421875 C 11.203125 0.0234375 10.050781 0.25 8.78125 0.25 Z M 8.78125 0.25 "/></g></g><g style="fill:#2dabe3;fill-opacity:0.4;"><g transform="translate(66.525594, 45.825003)"><path style="stroke:none" d="M 1.515625 -15.578125 L 4.78125 -15.578125 L 4.78125 0 L 1.515625 0 Z M 1.515625 -15.578125 "/></g></g><g style="fill:#2dabe3;fill-opacity:0.4;"><g transform="translate(72.846623, 45.825003)"><path style="stroke:none" d="M 1.515625 -11.296875 L 4.78125 -11.296875 L 4.78125 0 L 1.515625 0 Z M 3.15625 -12.875 C 2.550781 -12.875 2.054688 -13.046875 1.671875 -13.390625 C 1.296875 -13.742188 1.109375 -14.179688 1.109375 -14.703125 C 1.109375 -15.222656 1.296875 -15.65625 1.671875 -16 C 2.054688 -16.351562 2.550781 -16.53125 3.15625 -16.53125 C 3.757812 -16.53125 4.25 -16.359375 4.625 -16.015625 C 5 -15.679688 5.1875 -15.265625 5.1875 -14.765625 C 5.1875 -14.210938 5 -13.757812 4.625 -13.40625 C 4.25 -13.050781 3.757812 -12.875 3.15625 -12.875 Z M 3.15625 -12.875 "/></g></g><g style="fill:#2dabe3;fill-opacity:0.4;"><g transform="translate(79.167653, 45.825003)"><path style="stroke:none" d="M 15.984375 -11.46875 C 17.398438 -11.46875 18.519531 -11.050781 19.34375 -10.21875 C 20.175781 -9.382812 20.59375 -8.132812 20.59375 -6.46875 L 20.59375 0 L 17.328125 0 L 17.328125 -5.96875 C 17.328125 -6.863281 17.140625 -7.53125 16.765625 -7.96875 C 16.398438 -8.40625 15.875 -8.625 15.1875 -8.625 C 14.414062 -8.625 13.804688 -8.375 13.359375 -7.875 C 12.910156 -7.382812 12.6875 -6.648438 12.6875 -5.671875 L 12.6875 0 L 9.40625 0 L 9.40625 -5.96875 C 9.40625 -7.738281 8.691406 -8.625 7.265625 -8.625 C 6.503906 -8.625 5.898438 -8.375 5.453125 -7.875 C 5.003906 -7.382812 4.78125 -6.648438 4.78125 -5.671875 L 4.78125 0 L 1.515625 0 L 1.515625 -11.296875 L 4.640625 -11.296875 L 4.640625 -10 C 5.054688 -10.46875 5.566406 -10.828125 6.171875 -11.078125 C 6.785156 -11.335938 7.457031 -11.46875 8.1875 -11.46875 C 8.988281 -11.46875 9.707031 -11.304688 10.34375 -10.984375 C 10.988281 -10.671875 11.507812 -10.21875 11.90625 -9.625 C 12.363281 -10.207031 12.945312 -10.660156 13.65625 -10.984375 C 14.363281 -11.304688 15.140625 -11.46875 15.984375 -11.46875 Z M 15.984375 -11.46875 "/></g></g><g style="fill:#2dabe3;fill-opacity:0.4;"><g transform="translate(101.196738, 45.825003)"><path style="stroke:none" d="M 6.0625 -11.46875 C 7.8125 -11.46875 9.15625 -11.050781 10.09375 -10.21875 C 11.039062 -9.382812 11.515625 -8.128906 11.515625 -6.453125 L 11.515625 0 L 8.4375 0 L 8.4375 -1.40625 C 7.820312 -0.351562 6.675781 0.171875 5 0.171875 C 4.132812 0.171875 3.378906 0.0234375 2.734375 -0.265625 C 2.097656 -0.566406 1.613281 -0.972656 1.28125 -1.484375 C 0.945312 -2.003906 0.78125 -2.59375 0.78125 -3.25 C 0.78125 -4.300781 1.175781 -5.128906 1.96875 -5.734375 C 2.757812 -6.335938 3.976562 -6.640625 5.625 -6.640625 L 8.234375 -6.640625 C 8.234375 -7.347656 8.015625 -7.894531 7.578125 -8.28125 C 7.148438 -8.664062 6.5 -8.859375 5.625 -8.859375 C 5.019531 -8.859375 4.425781 -8.765625 3.84375 -8.578125 C 3.269531 -8.390625 2.78125 -8.132812 2.375 -7.8125 L 1.203125 -10.09375 C 1.816406 -10.53125 2.550781 -10.867188 3.40625 -11.109375 C 4.269531 -11.347656 5.15625 -11.46875 6.0625 -11.46875 Z M 5.8125 -2.03125 C 6.375 -2.03125 6.867188 -2.160156 7.296875 -2.421875 C 7.734375 -2.679688 8.046875 -3.0625 8.234375 -3.5625 L 8.234375 -4.71875 L 5.984375 -4.71875 C 4.640625 -4.71875 3.96875 -4.28125 3.96875 -3.40625 C 3.96875 -2.976562 4.128906 -2.640625 4.453125 -2.390625 C 4.785156 -2.148438 5.238281 -2.03125 5.8125 -2.03125 Z M 5.8125 -2.03125 "/></g></g><g style="fill:#2dabe3;fill-opacity:0.4;"><g transform="translate(114.153795, 45.825003)"><path style="stroke:none" d="M 8.796875 -5.203125 L 8.796875 0 L 5.390625 0 L 5.390625 -5.25 L -0.296875 -14.703125 L 3.3125 -14.703125 L 7.25 -8.171875 L 11.171875 -14.703125 L 14.515625 -14.703125 Z M 8.796875 -5.203125 "/></g></g><g style="fill:#2dabe3;fill-opacity:0.4;"><g transform="translate(128.349857, 45.825003)"><path style="stroke:none" d="M 6.0625 -11.46875 C 7.8125 -11.46875 9.15625 -11.050781 10.09375 -10.21875 C 11.039062 -9.382812 11.515625 -8.128906 11.515625 -6.453125 L 11.515625 0 L 8.4375 0 L 8.4375 -1.40625 C 7.820312 -0.351562 6.675781 0.171875 5 0.171875 C 4.132812 0.171875 3.378906 0.0234375 2.734375 -0.265625 C 2.097656 -0.566406 1.613281 -0.972656 1.28125 -1.484375 C 0.945312 -2.003906 0.78125 -2.59375 0.78125 -3.25 C 0.78125 -4.300781 1.175781 -5.128906 1.96875 -5.734375 C 2.757812 -6.335938 3.976562 -6.640625 5.625 -6.640625 L 8.234375 -6.640625 C 8.234375 -7.347656 8.015625 -7.894531 7.578125 -8.28125 C 7.148438 -8.664062 6.5 -8.859375 5.625 -8.859375 C 5.019531 -8.859375 4.425781 -8.765625 3.84375 -8.578125 C 3.269531 -8.390625 2.78125 -8.132812 2.375 -7.8125 L 1.203125 -10.09375 C 1.816406 -10.53125 2.550781 -10.867188 3.40625 -11.109375 C 4.269531 -11.347656 5.15625 -11.46875 6.0625 -11.46875 Z M 5.8125 -2.03125 C 6.375 -2.03125 6.867188 -2.160156 7.296875 -2.421875 C 7.734375 -2.679688 8.046875 -3.0625 8.234375 -3.5625 L 8.234375 -4.71875 L 5.984375 -4.71875 C 4.640625 -4.71875 3.96875 -4.28125 3.96875 -3.40625 C 3.96875 -2.976562 4.128906 -2.640625 4.453125 -2.390625 C 4.785156 -2.148438 5.238281 -2.03125 5.8125 -2.03125 Z M 5.8125 -2.03125 "/></g></g><g style="fill:#2dabe3;fill-opacity:1;"><g transform="translate(51.132537, 45.825003)"><path style="stroke:none" d="M 8.78125 0.25 C 7.28125 0.25 5.921875 -0.0703125 4.703125 -0.71875 C 3.492188 -1.375 2.539062 -2.28125 1.84375 -3.4375 C 1.15625 -4.59375 0.8125 -5.894531 0.8125 -7.34375 C 0.8125 -8.800781 1.15625 -10.109375 1.84375 -11.265625 C 2.539062 -12.421875 3.492188 -13.320312 4.703125 -13.96875 C 5.921875 -14.625 7.285156 -14.953125 8.796875 -14.953125 C 10.066406 -14.953125 11.21875 -14.726562 12.25 -14.28125 C 13.28125 -13.832031 14.144531 -13.1875 14.84375 -12.34375 L 12.65625 -10.328125 C 11.664062 -11.472656 10.4375 -12.046875 8.96875 -12.046875 C 8.0625 -12.046875 7.25 -11.847656 6.53125 -11.453125 C 5.8125 -11.054688 5.253906 -10.5 4.859375 -9.78125 C 4.460938 -9.070312 4.265625 -8.257812 4.265625 -7.34375 C 4.265625 -6.4375 4.460938 -5.625 4.859375 -4.90625 C 5.253906 -4.195312 5.8125 -3.640625 6.53125 -3.234375 C 7.25 -2.835938 8.0625 -2.640625 8.96875 -2.640625 C 10.4375 -2.640625 11.664062 -3.222656 12.65625 -4.390625 L 14.84375 -2.375 C 14.144531 -1.519531 13.273438 -0.867188 12.234375 -0.421875 C 11.203125 0.0234375 10.050781 0.25 8.78125 0.25 Z M 8.78125 0.25 "/></g></g><g style="fill:#2dabe3;fill-opacity:1;"><g transform="translate(66.525594, 45.825003)"><path style="stroke:none" d="M 1.515625 -15.578125 L 4.78125 -15.578125 L 4.78125 0 L 1.515625 0 Z M 1.515625 -15.578125 "/></g></g><g style="fill:#2dabe3;fill-opacity:1;"><g transform="translate(72.846623, 45.825003)"><path style="stroke:none" d="M 1.515625 -11.296875 L 4.78125 -11.296875 L 4.78125 0 L 1.515625 0 Z M 3.15625 -12.875 C 2.550781 -12.875 2.054688 -13.046875 1.671875 -13.390625 C 1.296875 -13.742188 1.109375 -14.179688 1.109375 -14.703125 C 1.109375 -15.222656 1.296875 -15.65625 1.671875 -16 C 2.054688 -16.351562 2.550781 -16.53125 3.15625 -16.53125 C 3.757812 -16.53125 4.25 -16.359375 4.625 -16.015625 C 5 -15.679688 5.1875 -15.265625 5.1875 -14.765625 C 5.1875 -14.210938 5 -13.757812 4.625 -13.40625 C 4.25 -13.050781 3.757812 -12.875 3.15625 -12.875 Z M 3.15625 -12.875 "/></g></g><g style="fill:#2dabe3;fill-opacity:1;"><g transform="translate(79.167653, 45.825003)"><path style="stroke:none" d="M 15.984375 -11.46875 C 17.398438 -11.46875 18.519531 -11.050781 19.34375 -10.21875 C 20.175781 -9.382812 20.59375 -8.132812 20.59375 -6.46875 L 20.59375 0 L 17.328125 0 L 17.328125 -5.96875 C 17.328125 -6.863281 17.140625 -7.53125 16.765625 -7.96875 C 16.398438 -8.40625 15.875 -8.625 15.1875 -8.625 C 14.414062 -8.625 13.804688 -8.375 13.359375 -7.875 C 12.910156 -7.382812 12.6875 -6.648438 12.6875 -5.671875 L 12.6875 0 L 9.40625 0 L 9.40625 -5.96875 C 9.40625 -7.738281 8.691406 -8.625 7.265625 -8.625 C 6.503906 -8.625 5.898438 -8.375 5.453125 -7.875 C 5.003906 -7.382812 4.78125 -6.648438 4.78125 -5.671875 L 4.78125 0 L 1.515625 0 L 1.515625 -11.296875 L 4.640625 -11.296875 L 4.640625 -10 C 5.054688 -10.46875 5.566406 -10.828125 6.171875 -11.078125 C 6.785156 -11.335938 7.457031 -11.46875 8.1875 -11.46875 C 8.988281 -11.46875 9.707031 -11.304688 10.34375 -10.984375 C 10.988281 -10.671875 11.507812 -10.21875 11.90625 -9.625 C 12.363281 -10.207031 12.945312 -10.660156 13.65625 -10.984375 C 14.363281 -11.304688 15.140625 -11.46875 15.984375 -11.46875 Z M 15.984375 -11.46875 "/></g></g><g style="fill:#2dabe3;fill-opacity:1;"><g transform="translate(101.196738, 45.825003)"><path style="stroke:none" d="M 6.0625 -11.46875 C 7.8125 -11.46875 9.15625 -11.050781 10.09375 -10.21875 C 11.039062 -9.382812 11.515625 -8.128906 11.515625 -6.453125 L 11.515625 0 L 8.4375 0 L 8.4375 -1.40625 C 7.820312 -0.351562 6.675781 0.171875 5 0.171875 C 4.132812 0.171875 3.378906 0.0234375 2.734375 -0.265625 C 2.097656 -0.566406 1.613281 -0.972656 1.28125 -1.484375 C 0.945312 -2.003906 0.78125 -2.59375 0.78125 -3.25 C 0.78125 -4.300781 1.175781 -5.128906 1.96875 -5.734375 C 2.757812 -6.335938 3.976562 -6.640625 5.625 -6.640625 L 8.234375 -6.640625 C 8.234375 -7.347656 8.015625 -7.894531 7.578125 -8.28125 C 7.148438 -8.664062 6.5 -8.859375 5.625 -8.859375 C 5.019531 -8.859375 4.425781 -8.765625 3.84375 -8.578125 C 3.269531 -8.390625 2.78125 -8.132812 2.375 -7.8125 L 1.203125 -10.09375 C 1.816406 -10.53125 2.550781 -10.867188 3.40625 -11.109375 C 4.269531 -11.347656 5.15625 -11.46875 6.0625 -11.46875 Z M 5.8125 -2.03125 C 6.375 -2.03125 6.867188 -2.160156 7.296875 -2.421875 C 7.734375 -2.679688 8.046875 -3.0625 8.234375 -3.5625 L 8.234375 -4.71875 L 5.984375 -4.71875 C 4.640625 -4.71875 3.96875 -4.28125 3.96875 -3.40625 C 3.96875 -2.976562 4.128906 -2.640625 4.453125 -2.390625 C 4.785156 -2.148438 5.238281 -2.03125 5.8125 -2.03125 Z M 5.8125 -2.03125 "/></g></g><g style="fill:#2dabe3;fill-opacity:1;"><g transform="translate(114.153795, 45.825003)"><path style="stroke:none" d="M 8.796875 -5.203125 L 8.796875 0 L 5.390625 0 L 5.390625 -5.25 L -0.296875 -14.703125 L 3.3125 -14.703125 L 7.25 -8.171875 L 11.171875 -14.703125 L 14.515625 -14.703125 Z M 8.796875 -5.203125 "/></g></g><g style="fill:#2dabe3;fill-opacity:1;"><g transform="translate(128.349857, 45.825003)"><path style="stroke:none" d="M 6.0625 -11.46875 C 7.8125 -11.46875 9.15625 -11.050781 10.09375 -10.21875 C 11.039062 -9.382812 11.515625 -8.128906 11.515625 -6.453125 L 11.515625 0 L 8.4375 0 L 8.4375 -1.40625 C 7.820312 -0.351562 6.675781 0.171875 5 0.171875 C 4.132812 0.171875 3.378906 0.0234375 2.734375 -0.265625 C 2.097656 -0.566406 1.613281 -0.972656 1.28125 -1.484375 C 0.945312 -2.003906 0.78125 -2.59375 0.78125 -3.25 C 0.78125 -4.300781 1.175781 -5.128906 1.96875 -5.734375 C 2.757812 -6.335938 3.976562 -6.640625 5.625 -6.640625 L 8.234375 -6.640625 C 8.234375 -7.347656 8.015625 -7.894531 7.578125 -8.28125 C 7.148438 -8.664062 6.5 -8.859375 5.625 -8.859375 C 5.019531 -8.859375 4.425781 -8.765625 3.84375 -8.578125 C 3.269531 -8.390625 2.78125 -8.132812 2.375 -7.8125 L 1.203125 -10.09375 C 1.816406 -10.53125 2.550781 -10.867188 3.40625 -11.109375 C 4.269531 -11.347656 5.15625 -11.46875 6.0625 -11.46875 Z M 5.8125 -2.03125 C 6.375 -2.03125 6.867188 -2.160156 7.296875 -2.421875 C 7.734375 -2.679688 8.046875 -3.0625 8.234375 -3.5625 L 8.234375 -4.71875 L 5.984375 -4.71875 C 4.640625 -4.71875 3.96875 -4.28125 3.96875 -3.40625 C 3.96875 -2.976562 4.128906 -2.640625 4.453125 -2.390625 C 4.785156 -2.148438 5.238281 -2.03125 5.8125 -2.03125 Z M 5.8125 -2.03125 "/></g></g><g style="fill:#2dabe3;fill-opacity:0.4;"><g transform="translate(62.247111, 56.078146)"><path style="stroke:none" d="M 3.453125 -0.71875 L 3.453125 0 L 0.453125 0 L 0.453125 -3.875 L 3.390625 -3.875 L 3.390625 -3.15625 L 1.34375 -3.15625 L 1.34375 -2.3125 L 3.140625 -2.3125 L 3.140625 -1.609375 L 1.34375 -1.609375 L 1.34375 -0.71875 Z M 3.453125 -0.71875 "/></g></g><g style="fill:#2dabe3;fill-opacity:0.4;"><g transform="translate(66.623981, 56.078146)"><path style="stroke:none" d="M 4.1875 -3.875 L 2.5 0 L 1.625 0 L -0.046875 -3.875 L 0.921875 -3.875 L 2.09375 -1.109375 L 3.296875 -3.875 Z M 4.1875 -3.875 "/></g></g><g style="fill:#2dabe3;fill-opacity:0.4;"><g transform="translate(71.415323, 56.078146)"><path style="stroke:none" d="M 3.015625 -0.828125 L 1.21875 -0.828125 L 0.875 0 L -0.046875 0 L 1.671875 -3.875 L 2.5625 -3.875 L 4.296875 0 L 3.359375 0 Z M 2.734375 -1.515625 L 2.109375 -3 L 1.5 -1.515625 Z M 2.734375 -1.515625 "/></g></g><g style="fill:#2dabe3;fill-opacity:0.4;"><g transform="translate(76.317193, 56.078146)"><path style="stroke:none" d="M 0.453125 -3.875 L 1.359375 -3.875 L 1.359375 -0.734375 L 3.296875 -0.734375 L 3.296875 0 L 0.453125 0 Z M 0.453125 -3.875 "/></g></g><g style="fill:#2dabe3;fill-opacity:0.4;"><g transform="translate(80.323792, 56.078146)"><path style="stroke:none" d="M 2.171875 0.0625 C 1.617188 0.0625 1.1875 -0.0859375 0.875 -0.390625 C 0.570312 -0.703125 0.421875 -1.140625 0.421875 -1.703125 L 0.421875 -3.875 L 1.328125 -3.875 L 1.328125 -1.734375 C 1.328125 -1.046875 1.613281 -0.703125 2.1875 -0.703125 C 2.46875 -0.703125 2.679688 -0.785156 2.828125 -0.953125 C 2.972656 -1.117188 3.046875 -1.378906 3.046875 -1.734375 L 3.046875 -3.875 L 3.9375 -3.875 L 3.9375 -1.703125 C 3.9375 -1.140625 3.78125 -0.703125 3.46875 -0.390625 C 3.164062 -0.0859375 2.734375 0.0625 2.171875 0.0625 Z M 2.171875 0.0625 "/></g></g><g style="fill:#2dabe3;fill-opacity:0.4;"><g transform="translate(85.347245, 56.078146)"><path style="stroke:none" d="M 3.015625 -0.828125 L 1.21875 -0.828125 L 0.875 0 L -0.046875 0 L 1.671875 -3.875 L 2.5625 -3.875 L 4.296875 0 L 3.359375 0 Z M 2.734375 -1.515625 L 2.109375 -3 L 1.5 -1.515625 Z M 2.734375 -1.515625 "/></g></g><g style="fill:#2dabe3;fill-opacity:0.4;"><g transform="translate(90.249115, 56.078146)"><path style="stroke:none" d="M 2.3125 0.0625 C 1.914062 0.0625 1.554688 -0.0195312 1.234375 -0.1875 C 0.921875 -0.363281 0.671875 -0.601562 0.484375 -0.90625 C 0.304688 -1.207031 0.21875 -1.550781 0.21875 -1.9375 C 0.21875 -2.320312 0.304688 -2.664062 0.484375 -2.96875 C 0.671875 -3.269531 0.921875 -3.503906 1.234375 -3.671875 C 1.554688 -3.847656 1.914062 -3.9375 2.3125 -3.9375 C 2.65625 -3.9375 2.960938 -3.875 3.234375 -3.75 C 3.503906 -3.632812 3.726562 -3.46875 3.90625 -3.25 L 3.328125 -2.71875 C 3.066406 -3.019531 2.742188 -3.171875 2.359375 -3.171875 C 2.117188 -3.171875 1.90625 -3.117188 1.71875 -3.015625 C 1.53125 -2.910156 1.382812 -2.765625 1.28125 -2.578125 C 1.175781 -2.390625 1.125 -2.175781 1.125 -1.9375 C 1.125 -1.695312 1.175781 -1.484375 1.28125 -1.296875 C 1.382812 -1.109375 1.53125 -0.960938 1.71875 -0.859375 C 1.90625 -0.753906 2.117188 -0.703125 2.359375 -0.703125 C 2.742188 -0.703125 3.066406 -0.851562 3.328125 -1.15625 L 3.90625 -0.625 C 3.726562 -0.394531 3.5 -0.222656 3.21875 -0.109375 C 2.945312 0.00390625 2.644531 0.0625 2.3125 0.0625 Z M 2.3125 0.0625 "/></g></g><g style="fill:#2dabe3;fill-opacity:0.4;"><g transform="translate(94.968619, 56.078146)"><path style="stroke:none" d="M 0.453125 -3.875 L 1.359375 -3.875 L 1.359375 0 L 0.453125 0 Z M 0.453125 -3.875 "/></g></g><g style="fill:#2dabe3;fill-opacity:0.4;"><g transform="translate(97.449949, 56.078146)"><path style="stroke:none" d="M 2.328125 0.0625 C 1.929688 0.0625 1.570312 -0.0195312 1.25 -0.1875 C 0.925781 -0.363281 0.671875 -0.601562 0.484375 -0.90625 C 0.304688 -1.207031 0.21875 -1.550781 0.21875 -1.9375 C 0.21875 -2.3125 0.304688 -2.648438 0.484375 -2.953125 C 0.671875 -3.265625 0.925781 -3.503906 1.25 -3.671875 C 1.570312 -3.847656 1.929688 -3.9375 2.328125 -3.9375 C 2.734375 -3.9375 3.097656 -3.847656 3.421875 -3.671875 C 3.742188 -3.503906 3.992188 -3.265625 4.171875 -2.953125 C 4.359375 -2.648438 4.453125 -2.3125 4.453125 -1.9375 C 4.453125 -1.550781 4.359375 -1.207031 4.171875 -0.90625 C 3.992188 -0.601562 3.742188 -0.363281 3.421875 -0.1875 C 3.097656 -0.0195312 2.734375 0.0625 2.328125 0.0625 Z M 2.328125 -0.703125 C 2.554688 -0.703125 2.765625 -0.753906 2.953125 -0.859375 C 3.140625 -0.960938 3.285156 -1.109375 3.390625 -1.296875 C 3.492188 -1.484375 3.546875 -1.695312 3.546875 -1.9375 C 3.546875 -2.175781 3.492188 -2.390625 3.390625 -2.578125 C 3.285156 -2.765625 3.140625 -2.910156 2.953125 -3.015625 C 2.765625 -3.117188 2.554688 -3.171875 2.328125 -3.171875 C 2.097656 -3.171875 1.890625 -3.117188 1.703125 -3.015625 C 1.523438 -2.910156 1.382812 -2.765625 1.28125 -2.578125 C 1.175781 -2.390625 1.125 -2.175781 1.125 -1.9375 C 1.125 -1.695312 1.175781 -1.484375 1.28125 -1.296875 C 1.382812 -1.109375 1.523438 -0.960938 1.703125 -0.859375 C 1.890625 -0.753906 2.097656 -0.703125 2.328125 -0.703125 Z M 2.578125 -4.984375 L 3.515625 -4.984375 L 2.515625 -4.1875 L 1.84375 -4.1875 Z M 2.578125 -4.984375 "/></g></g><g style="fill:#2dabe3;fill-opacity:0.4;"><g transform="translate(102.782875, 56.078146)"><path style="stroke:none" d="M 4.015625 -3.875 L 4.015625 0 L 3.28125 0 L 1.34375 -2.34375 L 1.34375 0 L 0.453125 0 L 0.453125 -3.875 L 1.203125 -3.875 L 3.125 -1.515625 L 3.125 -3.875 Z M 4.015625 -3.875 "/></g></g><g style="fill:#2dabe3;fill-opacity:0.4;"><g transform="translate(107.916856, 56.078146)"><path style="stroke:none" d=""/></g></g><g style="fill:#2dabe3;fill-opacity:0.4;"><g transform="translate(110.149499, 56.078146)"><path style="stroke:none" d="M 1.359375 -3.15625 L 1.359375 -2.125 L 3.140625 -2.125 L 3.140625 -1.40625 L 1.359375 -1.40625 L 1.359375 0 L 0.453125 0 L 0.453125 -3.875 L 3.390625 -3.875 L 3.390625 -3.15625 Z M 1.359375 -3.15625 "/></g></g><g style="fill:#2dabe3;fill-opacity:0.4;"><g transform="translate(114.349526, 56.078146)"><path style="stroke:none" d="M 0.453125 -3.875 L 1.359375 -3.875 L 1.359375 0 L 0.453125 0 Z M 0.453125 -3.875 "/></g></g><g style="fill:#2dabe3;fill-opacity:0.4;"><g transform="translate(116.830856, 56.078146)"><path style="stroke:none" d="M 4.015625 -3.875 L 4.015625 0 L 3.28125 0 L 1.34375 -2.34375 L 1.34375 0 L 0.453125 0 L 0.453125 -3.875 L 1.203125 -3.875 L 3.125 -1.515625 L 3.125 -3.875 Z M 4.015625 -3.875 "/></g></g><g style="fill:#2dabe3;fill-opacity:0.4;"><g transform="translate(121.964838, 56.078146)"><path style="stroke:none" d="M 3.015625 -0.828125 L 1.21875 -0.828125 L 0.875 0 L -0.046875 0 L 1.671875 -3.875 L 2.5625 -3.875 L 4.296875 0 L 3.359375 0 Z M 2.734375 -1.515625 L 2.109375 -3 L 1.5 -1.515625 Z M 2.734375 -1.515625 "/></g></g><g style="fill:#2dabe3;fill-opacity:0.4;"><g transform="translate(126.866708, 56.078146)"><path style="stroke:none" d="M 0.453125 -3.875 L 1.359375 -3.875 L 1.359375 -0.734375 L 3.296875 -0.734375 L 3.296875 0 L 0.453125 0 Z M 0.453125 -3.875 "/></g></g><g style="fill:#2dabe3;fill-opacity:1;"><g transform="translate(62.247111, 56.078146)"><path style="stroke:none" d="M 3.453125 -0.71875 L 3.453125 0 L 0.453125 0 L 0.453125 -3.875 L 3.390625 -3.875 L 3.390625 -3.15625 L 1.34375 -3.15625 L 1.34375 -2.3125 L 3.140625 -2.3125 L 3.140625 -1.609375 L 1.34375 -1.609375 L 1.34375 -0.71875 Z M 3.453125 -0.71875 "/></g></g><g style="fill:#2dabe3;fill-opacity:1;"><g transform="translate(66.623981, 56.078146)"><path style="stroke:none" d="M 4.1875 -3.875 L 2.5 0 L 1.625 0 L -0.046875 -3.875 L 0.921875 -3.875 L 2.09375 -1.109375 L 3.296875 -3.875 Z M 4.1875 -3.875 "/></g></g><g style="fill:#2dabe3;fill-opacity:1;"><g transform="translate(71.415323, 56.078146)"><path style="stroke:none" d="M 3.015625 -0.828125 L 1.21875 -0.828125 L 0.875 0 L -0.046875 0 L 1.671875 -3.875 L 2.5625 -3.875 L 4.296875 0 L 3.359375 0 Z M 2.734375 -1.515625 L 2.109375 -3 L 1.5 -1.515625 Z M 2.734375 -1.515625 "/></g></g><g style="fill:#2dabe3;fill-opacity:1;"><g transform="translate(76.317193, 56.078146)"><path style="stroke:none" d="M 0.453125 -3.875 L 1.359375 -3.875 L 1.359375 -0.734375 L 3.296875 -0.734375 L 3.296875 0 L 0.453125 0 Z M 0.453125 -3.875 "/></g></g><g style="fill:#2dabe3;fill-opacity:1;"><g transform="translate(80.323792, 56.078146)"><path style="stroke:none" d="M 2.171875 0.0625 C 1.617188 0.0625 1.1875 -0.0859375 0.875 -0.390625 C 0.570312 -0.703125 0.421875 -1.140625 0.421875 -1.703125 L 0.421875 -3.875 L 1.328125 -3.875 L 1.328125 -1.734375 C 1.328125 -1.046875 1.613281 -0.703125 2.1875 -0.703125 C 2.46875 -0.703125 2.679688 -0.785156 2.828125 -0.953125 C 2.972656 -1.117188 3.046875 -1.378906 3.046875 -1.734375 L 3.046875 -3.875 L 3.9375 -3.875 L 3.9375 -1.703125 C 3.9375 -1.140625 3.78125 -0.703125 3.46875 -0.390625 C 3.164062 -0.0859375 2.734375 0.0625 2.171875 0.0625 Z M 2.171875 0.0625 "/></g></g><g style="fill:#2dabe3;fill-opacity:1;"><g transform="translate(85.347245, 56.078146)"><path style="stroke:none" d="M 3.015625 -0.828125 L 1.21875 -0.828125 L 0.875 0 L -0.046875 0 L 1.671875 -3.875 L 2.5625 -3.875 L 4.296875 0 L 3.359375 0 Z M 2.734375 -1.515625 L 2.109375 -3 L 1.5 -1.515625 Z M 2.734375 -1.515625 "/></g></g><g style="fill:#2dabe3;fill-opacity:1;"><g transform="translate(90.249115, 56.078146)"><path style="stroke:none" d="M 2.3125 0.0625 C 1.914062 0.0625 1.554688 -0.0195312 1.234375 -0.1875 C 0.921875 -0.363281 0.671875 -0.601562 0.484375 -0.90625 C 0.304688 -1.207031 0.21875 -1.550781 0.21875 -1.9375 C 0.21875 -2.320312 0.304688 -2.664062 0.484375 -2.96875 C 0.671875 -3.269531 0.921875 -3.503906 1.234375 -3.671875 C 1.554688 -3.847656 1.914062 -3.9375 2.3125 -3.9375 C 2.65625 -3.9375 2.960938 -3.875 3.234375 -3.75 C 3.503906 -3.632812 3.726562 -3.46875 3.90625 -3.25 L 3.328125 -2.71875 C 3.066406 -3.019531 2.742188 -3.171875 2.359375 -3.171875 C 2.117188 -3.171875 1.90625 -3.117188 1.71875 -3.015625 C 1.53125 -2.910156 1.382812 -2.765625 1.28125 -2.578125 C 1.175781 -2.390625 1.125 -2.175781 1.125 -1.9375 C 1.125 -1.695312 1.175781 -1.484375 1.28125 -1.296875 C 1.382812 -1.109375 1.53125 -0.960938 1.71875 -0.859375 C 1.90625 -0.753906 2.117188 -0.703125 2.359375 -0.703125 C 2.742188 -0.703125 3.066406 -0.851562 3.328125 -1.15625 L 3.90625 -0.625 C 3.726562 -0.394531 3.5 -0.222656 3.21875 -0.109375 C 2.945312 0.00390625 2.644531 0.0625 2.3125 0.0625 Z M 2.3125 0.0625 "/></g></g><g style="fill:#2dabe3;fill-opacity:1;"><g transform="translate(94.968619, 56.078146)"><path style="stroke:none" d="M 0.453125 -3.875 L 1.359375 -3.875 L 1.359375 0 L 0.453125 0 Z M 0.453125 -3.875 "/></g></g><g style="fill:#2dabe3;fill-opacity:1;"><g transform="translate(97.449949, 56.078146)"><path style="stroke:none" d="M 2.328125 0.0625 C 1.929688 0.0625 1.570312 -0.0195312 1.25 -0.1875 C 0.925781 -0.363281 0.671875 -0.601562 0.484375 -0.90625 C 0.304688 -1.207031 0.21875 -1.550781 0.21875 -1.9375 C 0.21875 -2.3125 0.304688 -2.648438 0.484375 -2.953125 C 0.671875 -3.265625 0.925781 -3.503906 1.25 -3.671875 C 1.570312 -3.847656 1.929688 -3.9375 2.328125 -3.9375 C 2.734375 -3.9375 3.097656 -3.847656 3.421875 -3.671875 C 3.742188 -3.503906 3.992188 -3.265625 4.171875 -2.953125 C 4.359375 -2.648438 4.453125 -2.3125 4.453125 -1.9375 C 4.453125 -1.550781 4.359375 -1.207031 4.171875 -0.90625 C 3.992188 -0.601562 3.742188 -0.363281 3.421875 -0.1875 C 3.097656 -0.0195312 2.734375 0.0625 2.328125 0.0625 Z M 2.328125 -0.703125 C 2.554688 -0.703125 2.765625 -0.753906 2.953125 -0.859375 C 3.140625 -0.960938 3.285156 -1.109375 3.390625 -1.296875 C 3.492188 -1.484375 3.546875 -1.695312 3.546875 -1.9375 C 3.546875 -2.175781 3.492188 -2.390625 3.390625 -2.578125 C 3.285156 -2.765625 3.140625 -2.910156 2.953125 -3.015625 C 2.765625 -3.117188 2.554688 -3.171875 2.328125 -3.171875 C 2.097656 -3.171875 1.890625 -3.117188 1.703125 -3.015625 C 1.523438 -2.910156 1.382812 -2.765625 1.28125 -2.578125 C 1.175781 -2.390625 1.125 -2.175781 1.125 -1.9375 C 1.125 -1.695312 1.175781 -1.484375 1.28125 -1.296875 C 1.382812 -1.109375 1.523438 -0.960938 1.703125 -0.859375 C 1.890625 -0.753906 2.097656 -0.703125 2.328125 -0.703125 Z M 2.578125 -4.984375 L 3.515625 -4.984375 L 2.515625 -4.1875 L 1.84375 -4.1875 Z M 2.578125 -4.984375 "/></g></g><g style="fill:#2dabe3;fill-opacity:1;"><g transform="translate(102.782875, 56.078146)"><path style="stroke:none" d="M 4.015625 -3.875 L 4.015625 0 L 3.28125 0 L 1.34375 -2.34375 L 1.34375 0 L 0.453125 0 L 0.453125 -3.875 L 1.203125 -3.875 L 3.125 -1.515625 L 3.125 -3.875 Z M 4.015625 -3.875 "/></g></g><g style="fill:#2dabe3;fill-opacity:1;"><g transform="translate(107.916856, 56.078146)"><path style="stroke:none" d=""/></g></g><g style="fill:#2dabe3;fill-opacity:1;"><g transform="translate(110.149499, 56.078146)"><path style="stroke:none" d="M 1.359375 -3.15625 L 1.359375 -2.125 L 3.140625 -2.125 L 3.140625 -1.40625 L 1.359375 -1.40625 L 1.359375 0 L 0.453125 0 L 0.453125 -3.875 L 3.390625 -3.875 L 3.390625 -3.15625 Z M 1.359375 -3.15625 "/></g></g><g style="fill:#2dabe3;fill-opacity:1;"><g transform="translate(114.349526, 56.078146)"><path style="stroke:none" d="M 0.453125 -3.875 L 1.359375 -3.875 L 1.359375 0 L 0.453125 0 Z M 0.453125 -3.875 "/></g></g><g style="fill:#2dabe3;fill-opacity:1;"><g transform="translate(116.830856, 56.078146)"><path style="stroke:none" d="M 4.015625 -3.875 L 4.015625 0 L 3.28125 0 L 1.34375 -2.34375 L 1.34375 0 L 0.453125 0 L 0.453125 -3.875 L 1.203125 -3.875 L 3.125 -1.515625 L 3.125 -3.875 Z M 4.015625 -3.875 "/></g></g><g style="fill:#2dabe3;fill-opacity:1;"><g transform="translate(121.964838, 56.078146)"><path style="stroke:none" d="M 3.015625 -0.828125 L 1.21875 -0.828125 L 0.875 0 L -0.046875 0 L 1.671875 -3.875 L 2.5625 -3.875 L 4.296875 0 L 3.359375 0 Z M 2.734375 -1.515625 L 2.109375 -3 L 1.5 -1.515625 Z M 2.734375 -1.515625 "/></g></g><g style="fill:#2dabe3;fill-opacity:1;"><g transform="translate(126.866708, 56.078146)"><path style="stroke:none" d="M 0.453125 -3.875 L 1.359375 -3.875 L 1.359375 -0.734375 L 3.296875 -0.734375 L 3.296875 0 L 0.453125 0 Z M 0.453125 -3.875 "/></g></g><g style="fill:#2dabe3;fill-opacity:0.4;"><g transform="translate(62.23272, 63.446569)"><path style="stroke:none" d="M 1.359375 -3.15625 L 1.359375 -2.125 L 3.140625 -2.125 L 3.140625 -1.40625 L 1.359375 -1.40625 L 1.359375 0 L 0.453125 0 L 0.453125 -3.875 L 3.390625 -3.875 L 3.390625 -3.15625 Z M 1.359375 -3.15625 "/></g></g><g style="fill:#2dabe3;fill-opacity:0.4;"><g transform="translate(66.432747, 63.446569)"><path style="stroke:none" d="M 3.453125 -0.71875 L 3.453125 0 L 0.453125 0 L 0.453125 -3.875 L 3.390625 -3.875 L 3.390625 -3.15625 L 1.34375 -3.15625 L 1.34375 -2.3125 L 3.140625 -2.3125 L 3.140625 -1.609375 L 1.34375 -1.609375 L 1.34375 -0.71875 Z M 3.453125 -0.71875 "/></g></g><g style="fill:#2dabe3;fill-opacity:0.4;"><g transform="translate(70.809617, 63.446569)"><path style="stroke:none" d="M 2.921875 0 L 2.171875 -1.078125 L 1.359375 -1.078125 L 1.359375 0 L 0.453125 0 L 0.453125 -3.875 L 2.140625 -3.875 C 2.484375 -3.875 2.78125 -3.816406 3.03125 -3.703125 C 3.28125 -3.585938 3.472656 -3.421875 3.609375 -3.203125 C 3.742188 -2.992188 3.8125 -2.75 3.8125 -2.46875 C 3.8125 -2.175781 3.742188 -1.925781 3.609375 -1.71875 C 3.472656 -1.507812 3.273438 -1.351562 3.015625 -1.25 L 3.890625 0 Z M 2.90625 -2.46875 C 2.90625 -2.6875 2.832031 -2.851562 2.6875 -2.96875 C 2.550781 -3.082031 2.347656 -3.140625 2.078125 -3.140625 L 1.359375 -3.140625 L 1.359375 -1.796875 L 2.078125 -1.796875 C 2.347656 -1.796875 2.550781 -1.851562 2.6875 -1.96875 C 2.832031 -2.082031 2.90625 -2.25 2.90625 -2.46875 Z M 2.90625 -2.46875 "/></g></g><g style="fill:#2dabe3;fill-opacity:0.4;"><g transform="translate(75.540174, 63.446569)"><path style="stroke:none" d="M 4.015625 -3.875 L 4.015625 0 L 3.28125 0 L 1.34375 -2.34375 L 1.34375 0 L 0.453125 0 L 0.453125 -3.875 L 1.203125 -3.875 L 3.125 -1.515625 L 3.125 -3.875 Z M 4.015625 -3.875 "/></g></g><g style="fill:#2dabe3;fill-opacity:0.4;"><g transform="translate(80.674155, 63.446569)"><path style="stroke:none" d="M 3.015625 -0.828125 L 1.21875 -0.828125 L 0.875 0 L -0.046875 0 L 1.671875 -3.875 L 2.5625 -3.875 L 4.296875 0 L 3.359375 0 Z M 2.734375 -1.515625 L 2.109375 -3 L 1.5 -1.515625 Z M 2.734375 -1.515625 "/></g></g><g style="fill:#2dabe3;fill-opacity:0.4;"><g transform="translate(85.576026, 63.446569)"><path style="stroke:none" d="M 4.015625 -3.875 L 4.015625 0 L 3.28125 0 L 1.34375 -2.34375 L 1.34375 0 L 0.453125 0 L 0.453125 -3.875 L 1.203125 -3.875 L 3.125 -1.515625 L 3.125 -3.875 Z M 4.015625 -3.875 "/></g></g><g style="fill:#2dabe3;fill-opacity:0.4;"><g transform="translate(90.710007, 63.446569)"><path style="stroke:none" d="M 0.453125 -3.875 L 2.21875 -3.875 C 2.632812 -3.875 3.003906 -3.789062 3.328125 -3.625 C 3.648438 -3.46875 3.898438 -3.242188 4.078125 -2.953125 C 4.265625 -2.660156 4.359375 -2.320312 4.359375 -1.9375 C 4.359375 -1.550781 4.265625 -1.210938 4.078125 -0.921875 C 3.898438 -0.628906 3.648438 -0.398438 3.328125 -0.234375 C 3.003906 -0.078125 2.632812 0 2.21875 0 L 0.453125 0 Z M 2.171875 -0.734375 C 2.554688 -0.734375 2.863281 -0.84375 3.09375 -1.0625 C 3.332031 -1.28125 3.453125 -1.570312 3.453125 -1.9375 C 3.453125 -2.300781 3.332031 -2.59375 3.09375 -2.8125 C 2.863281 -3.03125 2.554688 -3.140625 2.171875 -3.140625 L 1.359375 -3.140625 L 1.359375 -0.734375 Z M 2.171875 -0.734375 "/></g></g><g style="fill:#2dabe3;fill-opacity:0.4;"><g transform="translate(95.943457, 63.446569)"><path style="stroke:none" d="M 2.328125 0.0625 C 1.929688 0.0625 1.570312 -0.0195312 1.25 -0.1875 C 0.925781 -0.363281 0.671875 -0.601562 0.484375 -0.90625 C 0.304688 -1.207031 0.21875 -1.550781 0.21875 -1.9375 C 0.21875 -2.3125 0.304688 -2.648438 0.484375 -2.953125 C 0.671875 -3.265625 0.925781 -3.503906 1.25 -3.671875 C 1.570312 -3.847656 1.929688 -3.9375 2.328125 -3.9375 C 2.734375 -3.9375 3.097656 -3.847656 3.421875 -3.671875 C 3.742188 -3.503906 3.992188 -3.265625 4.171875 -2.953125 C 4.359375 -2.648438 4.453125 -2.3125 4.453125 -1.9375 C 4.453125 -1.550781 4.359375 -1.207031 4.171875 -0.90625 C 3.992188 -0.601562 3.742188 -0.363281 3.421875 -0.1875 C 3.097656 -0.0195312 2.734375 0.0625 2.328125 0.0625 Z M 2.328125 -0.703125 C 2.554688 -0.703125 2.765625 -0.753906 2.953125 -0.859375 C 3.140625 -0.960938 3.285156 -1.109375 3.390625 -1.296875 C 3.492188 -1.484375 3.546875 -1.695312 3.546875 -1.9375 C 3.546875 -2.175781 3.492188 -2.390625 3.390625 -2.578125 C 3.285156 -2.765625 3.140625 -2.910156 2.953125 -3.015625 C 2.765625 -3.117188 2.554688 -3.171875 2.328125 -3.171875 C 2.097656 -3.171875 1.890625 -3.117188 1.703125 -3.015625 C 1.523438 -2.910156 1.382812 -2.765625 1.28125 -2.578125 C 1.175781 -2.390625 1.125 -2.175781 1.125 -1.9375 C 1.125 -1.695312 1.175781 -1.484375 1.28125 -1.296875 C 1.382812 -1.109375 1.523438 -0.960938 1.703125 -0.859375 C 1.890625 -0.753906 2.097656 -0.703125 2.328125 -0.703125 Z M 2.328125 -0.703125 "/></g></g><g style="fill:#2dabe3;fill-opacity:0.4;"><g transform="translate(101.276382, 63.446569)"><path style="stroke:none" d=""/></g></g><g style="fill:#2dabe3;fill-opacity:0.4;"><g transform="translate(103.509025, 63.446569)"><path style="stroke:none" d="M 3.59375 -0.734375 L 3.59375 0 L 0.203125 0 L 0.203125 -0.578125 L 2.328125 -3.140625 L 0.25 -3.140625 L 0.25 -3.875 L 3.515625 -3.875 L 3.515625 -3.296875 L 1.390625 -0.734375 Z M 3.59375 -0.734375 "/></g></g><g style="fill:#2dabe3;fill-opacity:0.4;"><g transform="translate(107.885895, 63.446569)"><path style="stroke:none" d="M 3.015625 -0.828125 L 1.21875 -0.828125 L 0.875 0 L -0.046875 0 L 1.671875 -3.875 L 2.5625 -3.875 L 4.296875 0 L 3.359375 0 Z M 2.734375 -1.515625 L 2.109375 -3 L 1.5 -1.515625 Z M 2.734375 -1.515625 "/></g></g><g style="fill:#2dabe3;fill-opacity:0.4;"><g transform="translate(112.787765, 63.446569)"><path style="stroke:none" d="M 2.921875 0 L 2.171875 -1.078125 L 1.359375 -1.078125 L 1.359375 0 L 0.453125 0 L 0.453125 -3.875 L 2.140625 -3.875 C 2.484375 -3.875 2.78125 -3.816406 3.03125 -3.703125 C 3.28125 -3.585938 3.472656 -3.421875 3.609375 -3.203125 C 3.742188 -2.992188 3.8125 -2.75 3.8125 -2.46875 C 3.8125 -2.175781 3.742188 -1.925781 3.609375 -1.71875 C 3.472656 -1.507812 3.273438 -1.351562 3.015625 -1.25 L 3.890625 0 Z M 2.90625 -2.46875 C 2.90625 -2.6875 2.832031 -2.851562 2.6875 -2.96875 C 2.550781 -3.082031 2.347656 -3.140625 2.078125 -3.140625 L 1.359375 -3.140625 L 1.359375 -1.796875 L 2.078125 -1.796875 C 2.347656 -1.796875 2.550781 -1.851562 2.6875 -1.96875 C 2.832031 -2.082031 2.90625 -2.25 2.90625 -2.46875 Z M 2.90625 -2.46875 "/></g></g><g style="fill:#2dabe3;fill-opacity:0.4;"><g transform="translate(117.518322, 63.446569)"><path style="stroke:none" d="M 3.015625 -0.828125 L 1.21875 -0.828125 L 0.875 0 L -0.046875 0 L 1.671875 -3.875 L 2.5625 -3.875 L 4.296875 0 L 3.359375 0 Z M 2.734375 -1.515625 L 2.109375 -3 L 1.5 -1.515625 Z M 2.734375 -1.515625 "/></g></g><g style="fill:#2dabe3;fill-opacity:0.4;"><g transform="translate(122.420192, 63.446569)"><path style="stroke:none" d="M 1.265625 -3.140625 L 0.015625 -3.140625 L 0.015625 -3.875 L 3.390625 -3.875 L 3.390625 -3.140625 L 2.15625 -3.140625 L 2.15625 0 L 1.265625 0 Z M 1.265625 -3.140625 "/></g></g><g style="fill:#2dabe3;fill-opacity:0.4;"><g transform="translate(126.50416, 63.446569)"><path style="stroke:none" d="M 3.453125 -0.71875 L 3.453125 0 L 0.453125 0 L 0.453125 -3.875 L 3.390625 -3.875 L 3.390625 -3.15625 L 1.34375 -3.15625 L 1.34375 -2.3125 L 3.140625 -2.3125 L 3.140625 -1.609375 L 1.34375 -1.609375 L 1.34375 -0.71875 Z M 3.453125 -0.71875 "/></g></g><g style="fill:#2dabe3;fill-opacity:1;"><g transform="translate(62.23272, 63.446569)"><path style="stroke:none" d="M 1.359375 -3.15625 L 1.359375 -2.125 L 3.140625 -2.125 L 3.140625 -1.40625 L 1.359375 -1.40625 L 1.359375 0 L 0.453125 0 L 0.453125 -3.875 L 3.390625 -3.875 L 3.390625 -3.15625 Z M 1.359375 -3.15625 "/></g></g><g style="fill:#2dabe3;fill-opacity:1;"><g transform="translate(66.432747, 63.446569)"><path style="stroke:none" d="M 3.453125 -0.71875 L 3.453125 0 L 0.453125 0 L 0.453125 -3.875 L 3.390625 -3.875 L 3.390625 -3.15625 L 1.34375 -3.15625 L 1.34375 -2.3125 L 3.140625 -2.3125 L 3.140625 -1.609375 L 1.34375 -1.609375 L 1.34375 -0.71875 Z M 3.453125 -0.71875 "/></g></g><g style="fill:#2dabe3;fill-opacity:1;"><g transform="translate(70.809617, 63.446569)"><path style="stroke:none" d="M 2.921875 0 L 2.171875 -1.078125 L 1.359375 -1.078125 L 1.359375 0 L 0.453125 0 L 0.453125 -3.875 L 2.140625 -3.875 C 2.484375 -3.875 2.78125 -3.816406 3.03125 -3.703125 C 3.28125 -3.585938 3.472656 -3.421875 3.609375 -3.203125 C 3.742188 -2.992188 3.8125 -2.75 3.8125 -2.46875 C 3.8125 -2.175781 3.742188 -1.925781 3.609375 -1.71875 C 3.472656 -1.507812 3.273438 -1.351562 3.015625 -1.25 L 3.890625 0 Z M 2.90625 -2.46875 C 2.90625 -2.6875 2.832031 -2.851562 2.6875 -2.96875 C 2.550781 -3.082031 2.347656 -3.140625 2.078125 -3.140625 L 1.359375 -3.140625 L 1.359375 -1.796875 L 2.078125 -1.796875 C 2.347656 -1.796875 2.550781 -1.851562 2.6875 -1.96875 C 2.832031 -2.082031 2.90625 -2.25 2.90625 -2.46875 Z M 2.90625 -2.46875 "/></g></g><g style="fill:#2dabe3;fill-opacity:1;"><g transform="translate(75.540174, 63.446569)"><path style="stroke:none" d="M 4.015625 -3.875 L 4.015625 0 L 3.28125 0 L 1.34375 -2.34375 L 1.34375 0 L 0.453125 0 L 0.453125 -3.875 L 1.203125 -3.875 L 3.125 -1.515625 L 3.125 -3.875 Z M 4.015625 -3.875 "/></g></g><g style="fill:#2dabe3;fill-opacity:1;"><g transform="translate(80.674155, 63.446569)"><path style="stroke:none" d="M 3.015625 -0.828125 L 1.21875 -0.828125 L 0.875 0 L -0.046875 0 L 1.671875 -3.875 L 2.5625 -3.875 L 4.296875 0 L 3.359375 0 Z M 2.734375 -1.515625 L 2.109375 -3 L 1.5 -1.515625 Z M 2.734375 -1.515625 "/></g></g><g style="fill:#2dabe3;fill-opacity:1;"><g transform="translate(85.576026, 63.446569)"><path style="stroke:none" d="M 4.015625 -3.875 L 4.015625 0 L 3.28125 0 L 1.34375 -2.34375 L 1.34375 0 L 0.453125 0 L 0.453125 -3.875 L 1.203125 -3.875 L 3.125 -1.515625 L 3.125 -3.875 Z M 4.015625 -3.875 "/></g></g><g style="fill:#2dabe3;fill-opacity:1;"><g transform="translate(90.710007, 63.446569)"><path style="stroke:none" d="M 0.453125 -3.875 L 2.21875 -3.875 C 2.632812 -3.875 3.003906 -3.789062 3.328125 -3.625 C 3.648438 -3.46875 3.898438 -3.242188 4.078125 -2.953125 C 4.265625 -2.660156 4.359375 -2.320312 4.359375 -1.9375 C 4.359375 -1.550781 4.265625 -1.210938 4.078125 -0.921875 C 3.898438 -0.628906 3.648438 -0.398438 3.328125 -0.234375 C 3.003906 -0.078125 2.632812 0 2.21875 0 L 0.453125 0 Z M 2.171875 -0.734375 C 2.554688 -0.734375 2.863281 -0.84375 3.09375 -1.0625 C 3.332031 -1.28125 3.453125 -1.570312 3.453125 -1.9375 C 3.453125 -2.300781 3.332031 -2.59375 3.09375 -2.8125 C 2.863281 -3.03125 2.554688 -3.140625 2.171875 -3.140625 L 1.359375 -3.140625 L 1.359375 -0.734375 Z M 2.171875 -0.734375 "/></g></g><g style="fill:#2dabe3;fill-opacity:1;"><g transform="translate(95.943457, 63.446569)"><path style="stroke:none" d="M 2.328125 0.0625 C 1.929688 0.0625 1.570312 -0.0195312 1.25 -0.1875 C 0.925781 -0.363281 0.671875 -0.601562 0.484375 -0.90625 C 0.304688 -1.207031 0.21875 -1.550781 0.21875 -1.9375 C 0.21875 -2.3125 0.304688 -2.648438 0.484375 -2.953125 C 0.671875 -3.265625 0.925781 -3.503906 1.25 -3.671875 C 1.570312 -3.847656 1.929688 -3.9375 2.328125 -3.9375 C 2.734375 -3.9375 3.097656 -3.847656 3.421875 -3.671875 C 3.742188 -3.503906 3.992188 -3.265625 4.171875 -2.953125 C 4.359375 -2.648438 4.453125 -2.3125 4.453125 -1.9375 C 4.453125 -1.550781 4.359375 -1.207031 4.171875 -0.90625 C 3.992188 -0.601562 3.742188 -0.363281 3.421875 -0.1875 C 3.097656 -0.0195312 2.734375 0.0625 2.328125 0.0625 Z M 2.328125 -0.703125 C 2.554688 -0.703125 2.765625 -0.753906 2.953125 -0.859375 C 3.140625 -0.960938 3.285156 -1.109375 3.390625 -1.296875 C 3.492188 -1.484375 3.546875 -1.695312 3.546875 -1.9375 C 3.546875 -2.175781 3.492188 -2.390625 3.390625 -2.578125 C 3.285156 -2.765625 3.140625 -2.910156 2.953125 -3.015625 C 2.765625 -3.117188 2.554688 -3.171875 2.328125 -3.171875 C 2.097656 -3.171875 1.890625 -3.117188 1.703125 -3.015625 C 1.523438 -2.910156 1.382812 -2.765625 1.28125 -2.578125 C 1.175781 -2.390625 1.125 -2.175781 1.125 -1.9375 C 1.125 -1.695312 1.175781 -1.484375 1.28125 -1.296875 C 1.382812 -1.109375 1.523438 -0.960938 1.703125 -0.859375 C 1.890625 -0.753906 2.097656 -0.703125 2.328125 -0.703125 Z M 2.328125 -0.703125 "/></g></g><g style="fill:#2dabe3;fill-opacity:1;"><g transform="translate(101.276382, 63.446569)"><path style="stroke:none" d=""/></g></g><g style="fill:#2dabe3;fill-opacity:1;"><g transform="translate(103.509025, 63.446569)"><path style="stroke:none" d="M 3.59375 -0.734375 L 3.59375 0 L 0.203125 0 L 0.203125 -0.578125 L 2.328125 -3.140625 L 0.25 -3.140625 L 0.25 -3.875 L 3.515625 -3.875 L 3.515625 -3.296875 L 1.390625 -0.734375 Z M 3.59375 -0.734375 "/></g></g><g style="fill:#2dabe3;fill-opacity:1;"><g transform="translate(107.885895, 63.446569)"><path style="stroke:none" d="M 3.015625 -0.828125 L 1.21875 -0.828125 L 0.875 0 L -0.046875 0 L 1.671875 -3.875 L 2.5625 -3.875 L 4.296875 0 L 3.359375 0 Z M 2.734375 -1.515625 L 2.109375 -3 L 1.5 -1.515625 Z M 2.734375 -1.515625 "/></g></g><g style="fill:#2dabe3;fill-opacity:1;"><g transform="translate(112.787765, 63.446569)"><path style="stroke:none" d="M 2.921875 0 L 2.171875 -1.078125 L 1.359375 -1.078125 L 1.359375 0 L 0.453125 0 L 0.453125 -3.875 L 2.140625 -3.875 C 2.484375 -3.875 2.78125 -3.816406 3.03125 -3.703125 C 3.28125 -3.585938 3.472656 -3.421875 3.609375 -3.203125 C 3.742188 -2.992188 3.8125 -2.75 3.8125 -2.46875 C 3.8125 -2.175781 3.742188 -1.925781 3.609375 -1.71875 C 3.472656 -1.507812 3.273438 -1.351562 3.015625 -1.25 L 3.890625 0 Z M 2.90625 -2.46875 C 2.90625 -2.6875 2.832031 -2.851562 2.6875 -2.96875 C 2.550781 -3.082031 2.347656 -3.140625 2.078125 -3.140625 L 1.359375 -3.140625 L 1.359375 -1.796875 L 2.078125 -1.796875 C 2.347656 -1.796875 2.550781 -1.851562 2.6875 -1.96875 C 2.832031 -2.082031 2.90625 -2.25 2.90625 -2.46875 Z M 2.90625 -2.46875 "/></g></g><g style="fill:#2dabe3;fill-opacity:1;"><g transform="translate(117.518322, 63.446569)"><path style="stroke:none" d="M 3.015625 -0.828125 L 1.21875 -0.828125 L 0.875 0 L -0.046875 0 L 1.671875 -3.875 L 2.5625 -3.875 L 4.296875 0 L 3.359375 0 Z M 2.734375 -1.515625 L 2.109375 -3 L 1.5 -1.515625 Z M 2.734375 -1.515625 "/></g></g><g style="fill:#2dabe3;fill-opacity:1;"><g transform="translate(122.420192, 63.446569)"><path style="stroke:none" d="M 1.265625 -3.140625 L 0.015625 -3.140625 L 0.015625 -3.875 L 3.390625 -3.875 L 3.390625 -3.140625 L 2.15625 -3.140625 L 2.15625 0 L 1.265625 0 Z M 1.265625 -3.140625 "/></g></g><g style="fill:#2dabe3;fill-opacity:1;"><g transform="translate(126.50416, 63.446569)"><path style="stroke:none" d="M 3.453125 -0.71875 L 3.453125 0 L 0.453125 0 L 0.453125 -3.875 L 3.390625 -3.875 L 3.390625 -3.15625 L 1.34375 -3.15625 L 1.34375 -2.3125 L 3.140625 -2.3125 L 3.140625 -1.609375 L 1.34375 -1.609375 L 1.34375 -0.71875 Z M 3.453125 -0.71875 "/></g></g></g></svg>